<svg width="65" height="33" viewBox="0 0 80 167" fill="none" xmlns="http://www.w3.org/2000/svg">
<g clip-path="url(#clip0_1109_188)">
<path fill-rule="evenodd" clip-rule="evenodd" d="M0 0H167V167H0V0Z" fill="white"/>
<path fill-rule="evenodd" clip-rule="evenodd" d="M7.35057 153.955H6.87319C6.87319 153.717 6.75363 153.358 6.75363 153.238C6.75363 153.119 6.75363 152.881 6.39495 152.881H5.67759V153.955H5.31891V151.446H6.39495C6.87319 151.446 7.23101 151.566 7.23101 152.043C7.23101 152.401 7.11145 152.522 6.99275 152.64C7.11232 152.76 7.23101 152.88 7.23101 153.119V153.596C7.23101 153.717 7.23101 153.717 7.35057 153.717V153.955ZM6.87319 152.163C6.87319 151.805 6.63407 151.805 6.51451 151.805H5.67759V152.522H6.39495C6.63407 152.522 6.87319 152.401 6.87319 152.163V152.163ZM8.90486 152.641C8.90486 151.208 7.71012 150.011 6.15583 150.011C4.72197 150.011 3.52637 151.208 3.52637 152.641C3.52637 154.194 4.72197 155.39 6.15583 155.39C7.70925 155.39 8.90486 154.194 8.90486 152.641ZM8.54617 152.641C8.54617 153.956 7.471 154.911 6.15583 154.911C4.84067 154.911 3.88505 153.955 3.88505 152.641C3.88505 151.446 4.84153 150.37 6.15583 150.37C7.47013 150.37 8.54617 151.446 8.54617 152.641ZM155.791 104.356C155.791 107.942 153.52 109.614 149.456 109.614H141.689V106.028H149.456C150.173 106.028 150.771 105.909 151.011 105.671C151.249 105.431 151.489 105.072 151.489 104.595C151.489 104.116 151.25 103.638 151.011 103.4C150.771 103.16 150.294 103.041 149.576 103.041C145.873 102.921 141.211 103.16 141.211 97.9018C141.211 95.5106 142.764 92.8812 146.947 92.8812H154.954V96.4671H147.544C146.828 96.4671 146.349 96.4671 145.99 96.7054C145.632 97.064 145.394 97.4227 145.394 98.0205C145.394 98.6183 145.752 98.977 146.23 99.217C146.709 99.3357 147.187 99.4552 147.785 99.4552H149.935C152.206 99.4552 153.641 99.9326 154.597 100.77C155.313 101.606 155.791 102.683 155.791 104.356V104.356ZM138.939 100.77C137.983 99.9326 136.548 99.4552 134.277 99.4552H132.127C131.53 99.4552 131.051 99.3348 130.573 99.217C130.094 98.977 129.737 98.6183 129.737 98.0205C129.737 97.4227 129.856 97.064 130.334 96.7054C130.693 96.4671 131.17 96.4671 131.888 96.4671H139.298V92.8812H131.291C126.987 92.8812 125.553 95.5106 125.553 97.9018C125.553 103.159 130.215 102.921 133.92 103.041C134.636 103.041 135.115 103.16 135.353 103.4C135.591 103.638 135.832 104.116 135.832 104.595C135.832 105.072 135.592 105.431 135.353 105.671C134.994 105.909 134.517 106.028 133.8 106.028H126.031V109.614H133.8C137.862 109.614 140.134 107.941 140.134 104.356C140.134 102.683 139.656 101.606 138.939 100.77V100.77ZM123.64 106.149H114.2V102.802H123.402V99.457H114.2V96.3484H123.64V92.8829H110.256V109.614H123.64V106.149ZM105.952 93.7198C104.637 93.0024 103.084 92.882 101.052 92.882H91.8504V109.614H95.9128V103.519H100.216C101.649 103.519 102.487 103.639 103.085 104.236C103.802 105.072 103.802 106.507 103.802 107.583V109.614H107.745V106.386C107.745 104.833 107.626 104.116 107.148 103.279C106.789 102.8 106.074 102.203 105.117 101.845C106.192 101.488 107.986 100.053 107.986 97.4227C107.985 95.5115 107.268 94.4354 105.952 93.7198V93.7198ZM83.2446 92.882H70.456L65.3166 98.3801L60.4164 92.882H44.2818V109.614H60.1781L65.3175 104.116L70.2177 109.614H77.9866V103.998H83.0064C86.4719 103.998 89.9391 103.041 89.9391 98.3801C89.9383 93.8385 86.3523 92.882 83.2446 92.882ZM102.725 99.8148C102.128 100.053 101.53 100.053 100.813 100.053L95.9128 100.173V96.3475H100.813C101.53 96.3475 102.248 96.3475 102.725 96.7062C103.204 96.9462 103.561 97.4236 103.561 98.1409C103.561 98.8583 103.204 99.4561 102.725 99.8148V99.8148ZM83.2446 100.651H77.9857V96.3475H83.2446C84.6793 96.3475 85.635 96.9462 85.635 98.3801C85.635 99.8148 84.6785 100.651 83.2446 100.651ZM67.8265 101.248L74.0411 94.6754V108.181L67.8265 101.248ZM58.1456 106.149H48.2255V102.802H57.0695V99.457H48.2255V96.3484H58.2651L62.6871 101.249L58.1456 106.149V106.149ZM144.675 80.8107H138.939L131.409 68.2612V80.8107H123.284L121.728 77.1052H113.363L111.809 80.8107H107.147C105.235 80.8107 102.725 80.3325 101.292 78.8978C99.977 77.4639 99.2597 75.5518 99.2597 72.5637C99.2597 70.0538 99.6183 67.783 101.41 65.9904C102.605 64.6753 104.757 64.0783 107.505 64.0783H111.329V67.6643H107.505C106.072 67.6643 105.234 67.9034 104.398 68.6208C103.681 69.3381 103.322 70.6524 103.322 72.445C103.322 74.2375 103.681 75.5527 104.398 76.3896C104.995 76.9865 106.072 77.2257 107.146 77.2257H108.94L114.676 64.0792H120.652L127.345 79.8551V64.0783H133.561L140.612 75.6714V64.0783H144.674V80.8107H144.675V80.8107ZM97.228 64.0783H93.1655V80.8107H97.228V64.0783V64.0783ZM88.7418 64.7957C87.4266 64.0783 85.9936 64.0783 83.962 64.0783H74.7584V80.8107H78.7022V74.7149H83.0046C84.4394 74.7149 85.3958 74.8345 85.9928 75.4323C86.7101 76.2692 86.5897 77.7039 86.5897 78.6595V80.8107H90.6522V77.4639C90.6522 76.0301 90.5335 75.3127 89.9365 74.4758C89.5779 73.9975 88.8605 73.3997 88.0244 73.0419C89.0987 72.5637 90.893 71.2494 90.893 68.6199C90.8939 66.7078 90.0561 65.6318 88.7418 64.7957ZM71.8898 77.3452H62.5676V73.9984H71.7703V70.5329H62.5676V67.5447H71.8898V64.0792H58.5043V80.8116H71.8898V77.3452ZM55.5161 64.0783H48.9429L44.0426 75.4323L38.7837 64.0783H32.33V79.8543L25.5177 64.0783H19.5423L12.3712 80.8107H16.6737L18.2271 77.1052H26.5929L28.1463 80.8107H36.2738V67.6643L42.1297 80.8107H45.5952L51.4519 67.6643V80.8107H55.5153V64.0783H55.5161ZM120.295 73.5202L117.545 66.9469L114.797 73.5202H120.295ZM85.635 70.8916C85.038 71.2502 84.4402 71.2502 83.6033 71.2502H78.7022V67.5456H83.6024C84.3198 67.5456 85.155 67.5456 85.6341 67.7847C86.1115 68.1434 86.3515 68.6216 86.3515 69.3381C86.3515 70.0546 86.1123 70.6516 85.635 70.8916V70.8916ZM19.661 73.5202L22.41 66.9469L25.159 73.5202H19.661V73.5202ZM154.835 11.6104H12.2508V71.8472L17.1511 60.7324H27.5485L28.9832 63.4814V60.7324H41.1741L43.9231 66.7078L46.5525 60.7324H85.3958C87.1875 60.7324 88.7409 61.0911 89.9374 62.0467V60.7324H100.574V62.0467C102.366 61.0902 104.636 60.7324 107.267 60.7324H122.684L124.119 63.4814V60.7324H135.473L137.146 63.4814V60.7324H148.26V84.1576H137.027L134.877 80.5725V84.1576H120.892L119.339 80.3334H115.872L114.318 84.1576H107.028C104.16 84.1576 102.008 83.4402 100.575 82.7237V84.1576H83.2446V78.7791C83.2446 78.0617 83.1251 77.9422 82.6468 77.9422H82.0499V84.1567H48.5842V81.1686L47.3895 84.1567H40.338L39.1433 81.2881V84.1567H25.6373L24.2034 80.3325H20.737L19.1836 84.1567H12.2508V154.792H154.835V111.884C153.282 112.602 151.13 112.96 148.979 112.96H138.58V111.526C137.386 112.483 135.233 112.96 133.203 112.96H100.454V107.583C100.454 106.865 100.336 106.865 99.737 106.865H99.1401V112.96H88.3831V106.626C86.5914 107.462 84.5589 107.462 82.7664 107.462H81.5708V112.96H68.4243L65.3175 109.374L61.852 112.96H40.6958V89.5361H62.2089L65.3166 93.1203L68.6634 89.5361H83.1251C84.7972 89.5361 87.5471 89.7743 88.7418 90.9691V89.5361H101.649C102.964 89.5361 105.475 89.7743 107.147 90.9691V89.5361H126.629V90.9699C127.705 90.0134 129.737 89.5369 131.529 89.5369H142.405V90.9699C143.601 90.1339 145.273 89.5369 147.425 89.5369H154.835V11.6104V11.6104Z" fill="#0077A6"/>
</g>
<defs>
<clipPath id="clip0_1109_188">
<rect width="167" height="167" fill="white"/>
</clipPath>
</defs>
</svg>
