<svg width="55" height="33" viewBox="0 0 167 96" fill="none" xmlns="http://www.w3.org/2000/svg">
<g clip-path="url(#clip0_1112_202)">
<path d="M45.8523 0H28.5479C20.9017 0.361517 14.6517 3.44113 12.847 9.79178C11.906 13.1038 11.3882 16.7412 10.6524 20.1745C6.91165 37.6316 3.59474 55.5698 0.0166016 72.6784H134.738C145.153 72.6784 152.305 70.4775 154.237 62.2108C155.134 58.3708 155.994 54.0218 156.853 49.8029C160.202 33.3533 163.553 16.9048 166.983 0H45.8523Z" fill="#822124"/>
<path d="M44.5017 25.83C45.2254 25.3315 46.1576 23.0611 45.0927 22.1158C44.7554 21.8166 44.1913 21.7297 43.4044 21.8628C42.6745 21.9861 42.2546 22.2342 41.9695 22.6226C41.5113 23.2469 41.0908 25.1306 41.8007 25.8303C42.4923 26.5114 44.0412 26.1469 44.5017 25.83V25.83ZM34.2036 22.1158C33.6851 25.4803 33.101 28.7792 32.5153 32.0764C28.7549 32.1161 24.9156 32.2619 21.2886 31.9919C21.9736 28.7661 22.4649 25.3462 23.1457 22.1158H19.0939C17.6436 30.3445 16.324 38.7047 14.7046 46.7642H18.8409C19.4895 42.6302 20.0965 38.4536 20.951 34.5244C24.4777 34.4376 28.7044 34.2862 32.0935 34.609C31.3947 38.6939 30.5504 42.6322 29.8988 46.7642H34.0351C35.3645 38.4139 36.7644 30.1351 38.4248 22.1158H34.2036V22.1158ZM92.7009 29.2066C89.4826 27.9067 86.9523 30.1033 85.7793 32.161C86.0454 31.2455 86.1549 30.1735 86.3705 29.2066H83.1628C82.3784 35.2881 81.2228 40.9977 80.1241 46.7642H83.7541C84.2627 43.3415 84.4823 38.7273 85.6108 35.453C86.5128 32.8365 88.8733 30.6074 92.2794 31.8234C92.3266 30.8581 92.6029 30.1213 92.7009 29.2066V29.2066ZM94.7264 42.6283C94.3918 41.7636 94.3056 40.3366 94.3892 39.2514C94.5766 36.8125 95.4655 33.843 96.8372 32.4986C98.73 30.6431 102.467 30.9502 105.447 31.9922C105.539 30.9876 105.741 30.0915 105.87 29.1223C100.981 28.3239 96.3429 28.8208 93.8834 31.4016C91.4754 33.9279 89.8975 39.7345 91.0129 43.388C92.3187 47.6633 98.1744 47.8957 102.915 46.2582C103.125 45.3988 103.236 44.4408 103.422 43.5571C100.831 44.9026 95.8778 45.602 94.7264 42.6283V42.6283ZM135.498 29.2908C132.289 27.6867 129.619 30.3783 128.576 31.9919C128.873 31.1639 128.89 30.0551 129.167 29.2062H125.959C125.094 35.235 124.052 41.0862 122.836 46.7639H126.55C126.574 44.4368 127.031 42.7154 127.394 40.4336C128.17 35.5605 129.31 30.2167 134.992 31.8231C135.18 30.9991 135.258 30.0643 135.498 29.2908ZM40.7876 29.2066C40.6893 29.2207 40.6958 29.34 40.703 29.4596C39.9033 35.4409 38.8207 41.1399 37.6644 46.7639H41.294C42.1661 40.7423 43.1651 34.8483 44.4172 29.2062L40.7876 29.2066V29.2066ZM72.6952 28.869C70.0724 29.0712 67.8555 29.8257 66.28 31.4858C64.3475 33.5215 62.7828 38.0226 63.2413 42.1219C63.8955 47.9697 71.1767 47.7596 77.0003 46.3424C77.0996 45.3159 77.348 44.4385 77.5067 43.4722C75.1078 44.37 70.9423 45.623 68.4743 44.0635C66.6113 42.8852 66.6005 39.903 67.2082 37.3104C71.1223 37.1858 75.1904 37.2094 79.11 37.3104C79.3585 35.473 80.07 33.4697 79.4476 31.6549C78.6269 29.259 75.6869 28.6382 72.6952 28.869ZM76.156 35.2842H67.63C67.9001 33.3242 69.6634 31.1698 72.4418 31.0636C75.0567 30.9637 76.9288 32.0236 76.156 35.2842V35.2842ZM58.9362 29.2066C55.8641 28.0525 52.1201 29.4301 50.4968 30.7405C50.5027 30.7982 50.4581 30.806 50.4102 30.8103C50.4378 30.787 50.4679 30.7637 50.4968 30.7405C50.4965 30.7356 50.4959 30.7308 50.4951 30.7261C50.5223 30.1626 50.7206 29.77 50.7482 29.2066H47.6249C46.3234 37.8656 44.78 46.2824 43.1514 54.6144H46.781C47.3064 51.3696 47.6531 47.9461 48.385 44.9072C49.2139 48.1035 54.6265 47.4928 56.9107 46.2579C61.6228 43.7092 65.2577 31.5808 58.9362 29.2066V29.2066ZM56.0664 43.4722C54.1244 45.5289 49.3503 45.4981 48.9756 42.037C48.8127 40.5313 49.3735 38.9525 49.6515 37.3946C49.9317 35.8178 50.1339 34.3048 50.4106 32.9207C52.3234 30.5851 57.9441 30.3029 58.5144 34.1869C59.009 37.5588 57.6743 41.7689 56.0664 43.4722V43.4722ZM149.003 21.6095C148.692 24.3371 148.276 26.9601 147.737 29.4596C138.834 26.6412 133.374 33.1921 133.472 41.2776C133.491 42.8413 133.76 44.3919 134.738 45.4981C136.424 47.4037 141.249 47.8603 143.686 46.2575C144.157 45.9475 144.639 45.3831 144.952 44.9917C145.187 44.6971 145.559 43.9252 145.627 44.1474C145.499 45.0039 145.307 45.7977 145.29 46.7639H148.582C149.217 37.6627 151.178 29.8893 152.634 21.6091H149.003V21.6095H149.003ZM140.9 44.8226C138.457 44.875 137.242 43.3628 137.186 40.8554C137.088 36.4641 139.014 31.5854 142.926 31.1479C144.747 30.9443 146.065 31.3678 147.4 31.8234C146.175 36.7561 146.617 44.7 140.9 44.8226V44.8226ZM109.583 29.2066C109.404 30.2095 109.13 31.1171 108.908 32.0764C111.05 31.5392 117.719 29.8926 118.362 32.7516C118.575 33.7014 118.207 34.7106 117.94 35.453C111.909 34.8817 106.993 35.8837 105.7 40.1799C104.834 43.0576 105.797 45.8895 107.642 46.68C111.194 48.2021 115.515 46.4584 117.011 44.0635C116.856 44.8924 116.709 45.7305 116.759 46.7642H119.882C119.915 43.7731 120.35 41.352 120.81 38.6604C121.202 36.3684 121.94 34.0993 121.823 32.0764C121.554 27.4436 113.879 29.0823 109.583 29.2066V29.2066ZM115.492 43.3877C113.621 45.2189 108.371 45.739 108.908 41.3618C109.354 37.7263 113.312 36.9538 117.602 37.4785C117.283 39.4674 116.917 41.9924 115.492 43.3877V43.3877Z" fill="white"/>
</g>
<defs>
<clipPath id="clip0_1112_202">
<rect width="167" height="72.6784" fill="white"/>
</clipPath>
</defs>
</svg>
